<?xml version="1.0" encoding="UTF-8" standalone="no"?>
<!-- Created with Inkscape (http://www.inkscape.org/) -->

<svg
   xmlns:dc="http://purl.org/dc/elements/1.1/"
   xmlns:cc="http://creativecommons.org/ns#"
   xmlns:rdf="http://www.w3.org/1999/02/22-rdf-syntax-ns#"
   xmlns:svg="http://www.w3.org/2000/svg"
   xmlns="http://www.w3.org/2000/svg"
   version="1.1"
   width="744.09448"
   height="1052.3622"
   id="svg11321">
  <defs
     id="defs11323" />
  <metadata
     id="metadata11326">
    <rdf:RDF>
      <cc:Work
         rdf:about="">
        <dc:format>image/svg+xml</dc:format>
        <dc:type
           rdf:resource="http://purl.org/dc/dcmitype/StillImage" />
        <dc:title></dc:title>
      </cc:Work>
    </rdf:RDF>
  </metadata>
  <g
     id="layer1">
    <path
       d="m 472.50441,454.46709 -2.5624,6.375 -17.4063,43.34375 -1.6875,4.15625 4.5,-0.0312 5.6562,-0.0625 0,68.4375 6,0 0,-68.46875 12.5313,-0.125 0,68.59375 6,0 0,-68.65625 7.5,-0.0625 4.6875,-0.0312 -2,-4.25 -20.2812,-43 -2.9376,-6.21875 z m 0.4376,15 15.375,32.53125 -28.5313,0.28125 13.1563,-32.8125 z m -11.9376,153.1875 0,55.5 0,0.65625 0.3126,0.5625 8.7187,17.09375 0,45.21875 6,0 0,-46.875 8.875,-15.4375 0.3437,-0.625 0,-0.71875 0,-54.78125 -5.4374,0 0,54.09375 -7.125,12.375 -6.2188,-12.1875 0,-54.875 -5.4688,0 z"
       id="path11271"
       style="font-size:medium;font-style:normal;font-variant:normal;font-weight:normal;font-stretch:normal;text-indent:0;text-align:start;text-decoration:none;line-height:normal;letter-spacing:normal;word-spacing:normal;text-transform:none;direction:ltr;block-progression:tb;writing-mode:lr-tb;text-anchor:start;baseline-shift:baseline;color:#000000;fill:#d9c005;fill-opacity:1;stroke:none;stroke-width:6;marker:none;visibility:visible;display:inline;overflow:visible;enable-background:accumulate;font-family:Sans;-inkscape-font-specification:Sans" />
  </g>
</svg>
