<?xml version="1.0" encoding="UTF-8" standalone="no"?>
<svg
   xmlns:dc="http://purl.org/dc/elements/1.1/"
   xmlns:cc="http://creativecommons.org/ns#"
   xmlns:rdf="http://www.w3.org/1999/02/22-rdf-syntax-ns#"
   xmlns:svg="http://www.w3.org/2000/svg"
   xmlns="http://www.w3.org/2000/svg"
   xmlns:sodipodi="http://sodipodi.sourceforge.net/DTD/sodipodi-0.dtd"
   xmlns:inkscape="http://www.inkscape.org/namespaces/inkscape"
   width="210mm"
   height="297mm"
   viewBox="0 0 210 297"
   version="1.1"
   id="svg878"
   inkscape:version="1.0.2-2 (e86c870879, 2021-01-15)"
   sodipodi:docname="Flange.svg">
  <defs
     id="defs872" />
  <sodipodi:namedview
     id="base"
     pagecolor="#ffffff"
     bordercolor="#666666"
     borderopacity="1.0"
     inkscape:pageopacity="0.0"
     inkscape:pageshadow="2"
     inkscape:zoom="0.35"
     inkscape:cx="400"
     inkscape:cy="560"
     inkscape:document-units="mm"
     inkscape:current-layer="layer1"
     inkscape:document-rotation="0"
     showgrid="false"
     inkscape:window-width="1920"
     inkscape:window-height="1017"
     inkscape:window-x="-8"
     inkscape:window-y="-8"
     inkscape:window-maximized="1" />
  <metadata
     id="metadata875">
    <rdf:RDF>
      <cc:Work
         rdf:about="">
        <dc:format>image/svg+xml</dc:format>
        <dc:type
           rdf:resource="http://purl.org/dc/dcmitype/StillImage" />
        <dc:title></dc:title>
      </cc:Work>
    </rdf:RDF>
  </metadata>
  <g
     inkscape:label="Layer 1"
     inkscape:groupmode="layer"
     id="layer1">
    <path
       style="opacity:0.616129;fill:#000000;fill-opacity:1;stroke:none;stroke-width:1.32292;stroke-linecap:round;stroke-linejoin:round;stroke-miterlimit:4;stroke-dasharray:none;stroke-dashoffset:1.5;stroke-opacity:1"
       d="m 64.986951,72.066896 h 78.577239 c 0,0 22.81448,7.693923 27.79603,9.354439 7.21628,2.405425 8.81989,4.276312 11.22532,11.492589 2.35744,7.072298 8.28536,26.726956 8.28536,26.726956 v 78.0427 c 0,0 -6.41447,18.97614 -9.08717,26.19242 -2.67269,7.21627 -3.4745,9.08716 -11.49259,11.75986 -8.01808,2.67269 -26.45968,8.28535 -26.45968,8.28535 H 64.185141 c 0,0 -24.32152,-8.28535 -28.59784,-9.88897 -4.27631,-1.60362 -5.34539,-3.47451 -7.75081,-9.62171 -2.40543,-6.14719 -8.55263,-26.45968 -8.55263,-26.45968 v -79.64632 c 0,0 7.17095,-20.507174 8.8199,-25.925143 1.87088,-6.147202 4.27631,-8.819896 9.88897,-10.958052 5.61266,-2.138156 26.99422,-9.354439 26.99422,-9.354439 z"
       id="path855"
       sodipodi:nodetypes="ccssccssccssccssc" />
  </g>
</svg>
